<svg version="1.1" id="Layer_1" xmlns="http://www.w3.org/2000/svg" xmlns:xlink="http://www.w3.org/1999/xlink" x="0px" y="0px"
	 width="100%" viewBox="0 0 400 400" enable-background="new 0 0 400 400" xml:space="preserve">
<path fill="none" opacity="1.000000" stroke="none" 
	d="
M277.000000,401.000000 
	C184.695358,401.000000 92.890717,401.000000 1.043040,401.000000 
	C1.043040,267.737030 1.043040,134.474045 1.043040,1.105529 
	C134.221252,1.105529 267.442596,1.105529 400.831970,1.105529 
	C400.831970,134.333160 400.831970,267.666565 400.831970,401.000000 
	C359.807465,401.000000 318.653717,401.000000 277.000000,401.000000 
M193.499985,347.124207 
	C226.831589,347.122162 260.163391,347.065887 293.494476,347.195679 
	C297.116913,347.209747 298.589233,346.324554 299.388794,342.535187 
	C308.700928,298.401672 318.244568,254.317017 327.709290,210.215637 
	C329.854858,200.218262 331.932861,190.206345 333.976257,180.512848 
	C333.228912,179.972900 333.094055,179.790085 332.958710,179.789734 
	C304.467010,179.718140 275.975128,179.620865 247.484131,179.737869 
	C246.316147,179.742691 244.385391,181.596863 244.106461,182.872833 
	C238.242874,209.695480 232.474609,236.540176 226.941345,263.432709 
	C225.997955,268.017700 224.496231,269.852966 219.333481,269.835815 
	C154.670563,269.620728 90.006699,269.693756 25.343069,269.692902 
	C23.044283,269.692871 20.745499,269.692871 18.108271,269.692871 
	C12.554227,295.550140 7.082209,321.025513 1.476303,347.124237 
	C65.574303,347.124237 129.037140,347.124237 193.499985,347.124207 
M86.860168,134.333618 
	C80.631721,163.221725 74.403275,192.109833 68.075569,221.458313 
	C98.515205,221.458313 127.935150,221.458313 157.431290,221.458313 
	C157.687805,220.597763 157.914871,219.989029 158.050049,219.360535 
	C163.963623,191.866409 170.002823,164.397903 175.636459,136.846451 
	C176.518295,132.533752 178.184235,131.736252 182.160172,131.743408 
	C247.151901,131.860306 312.143921,131.824524 377.135864,131.823166 
	C379.252991,131.823120 381.370117,131.823181 383.488129,131.823181 
	C389.058105,105.860176 394.487427,80.552559 399.992249,54.893261 
	C398.171234,54.741570 396.883057,54.540489 395.594849,54.540318 
	C299.773407,54.527634 203.951935,54.548611 108.130577,54.459362 
	C104.752083,54.456215 103.573746,55.628193 102.911659,58.788853 
	C97.691505,83.708763 92.306747,108.594193 86.860168,134.333618 
z"/>
<path fill="#065563" opacity="1.000000" stroke="none" 
	d="
M192.999969,347.124207 
	C129.037140,347.124237 65.574303,347.124237 1.476303,347.124237 
	C7.082209,321.025513 12.554227,295.550140 18.108271,269.692871 
	C20.745499,269.692871 23.044283,269.692871 25.343069,269.692902 
	C90.006699,269.693756 154.670563,269.620728 219.333481,269.835815 
	C224.496231,269.852966 225.997955,268.017700 226.941345,263.432709 
	C232.474609,236.540176 238.242874,209.695480 244.106461,182.872833 
	C244.385391,181.596863 246.316147,179.742691 247.484131,179.737869 
	C275.975128,179.620865 304.467010,179.718140 332.958710,179.789734 
	C333.094055,179.790085 333.228912,179.972900 333.976257,180.512848 
	C331.932861,190.206345 329.854858,200.218262 327.709290,210.215637 
	C318.244568,254.317017 308.700928,298.401672 299.388794,342.535187 
	C298.589233,346.324554 297.116913,347.209747 293.494476,347.195679 
	C260.163391,347.065887 226.831589,347.122162 192.999969,347.124207 
z"/>
<path fill="#075563" opacity="1.000000" stroke="none" 
	d="
M86.916412,133.911926 
	C92.306747,108.594193 97.691505,83.708763 102.911659,58.788853 
	C103.573746,55.628193 104.752083,54.456215 108.130577,54.459362 
	C203.951935,54.548611 299.773407,54.527634 395.594849,54.540318 
	C396.883057,54.540489 398.171234,54.741570 399.992249,54.893261 
	C394.487427,80.552559 389.058105,105.860176 383.488129,131.823181 
	C381.370117,131.823181 379.252991,131.823120 377.135864,131.823166 
	C312.143921,131.824524 247.151901,131.860306 182.160172,131.743408 
	C178.184235,131.736252 176.518295,132.533752 175.636459,136.846451 
	C170.002823,164.397903 163.963623,191.866409 158.050049,219.360535 
	C157.914871,219.989029 157.687805,220.597763 157.431290,221.458313 
	C127.935150,221.458313 98.515205,221.458313 68.075569,221.458313 
	C74.403275,192.109833 80.631721,163.221725 86.916412,133.911926 
z"/>
</svg>
